<svg width="16" height="18" viewBox="0 0 16 18" fill="none" xmlns="http://www.w3.org/2000/svg">
<rect y="2" width="16" height="16" rx="2" fill="#733F94"/>
<path d="M5.496 8.304C4.73867 8.304 4.36 9.008 4.36 10.416V10.528C4.36 10.6667 4.328 10.736 4.264 10.736C4.104 10.736 3.98133 10.544 3.896 10.16C3.82133 9.776 3.784 9.45067 3.784 9.184C3.784 8.74667 3.88 8.35733 4.072 8.016C4.27467 7.67467 4.584 7.504 5 7.504C5.82133 7.504 6.61067 7.984 7.368 8.944C8.008 8.19733 8.69067 7.44533 9.416 6.688C10.152 5.92 10.7227 5.344 11.128 4.96L11.736 4.368C12.3973 3.376 12.9413 2.88 13.368 2.88C13.4747 2.88 13.528 2.928 13.528 3.024C13.528 3.088 13.5067 3.16267 13.464 3.248C12.5253 5.09333 11.6667 7.17333 10.888 9.488C9.90667 12.432 9.416 14.688 9.416 16.256C9.416 16.7467 9.47467 17.104 9.592 17.328C9.63467 17.3813 9.656 17.4347 9.656 17.488C9.656 17.5627 9.592 17.6 9.464 17.6C9.176 17.6 8.936 17.5253 8.744 17.376C8.552 17.2373 8.41333 17.0507 8.328 16.816C8.25333 16.5813 8.2 16.368 8.168 16.176C8.136 15.9947 8.12 15.808 8.12 15.616C8.12 15.296 8.17867 14.8213 8.296 14.192C8.41333 13.5627 8.472 13.104 8.472 12.816C8.472 12.3893 8.376 11.888 8.184 11.312C8.00267 10.7253 7.75733 10.192 7.448 9.712C7.10667 10.1813 6.792 10.6507 6.504 11.12C6.22667 11.5893 6.02933 11.936 5.912 12.16L5.752 12.512C5.368 13.3013 4.98933 14.0213 4.616 14.672C4.24267 15.3227 3.96533 15.776 3.784 16.032L3.512 16.4C3.39467 16.5387 3.288 16.608 3.192 16.608C3.07467 16.608 3.016 16.4853 3.016 16.24C3.048 14.736 4.41333 12.4053 7.112 9.248C6.58933 8.61867 6.05067 8.304 5.496 8.304ZM10.984 5.792C9.81067 6.816 8.712 8.016 7.688 9.392C8.136 10.0747 8.48267 10.8533 8.728 11.728C8.76 11.824 8.78667 11.872 8.808 11.872L8.888 11.728C9.15467 10.8213 9.47467 9.88267 9.848 8.912C10.232 7.93067 10.5467 7.17867 10.792 6.656L11.16 5.888C11.192 5.824 11.208 5.78133 11.208 5.76C11.208 5.73867 11.192 5.728 11.16 5.728L10.984 5.792Z" fill="white"/>
</svg>
